<svg width="20" height="20" viewBox="0 0 20 20" fill="none" xmlns="http://www.w3.org/2000/svg">
<path d="M19.4141 1.44349H16.8475C16.8568 1.15922 16.862 0.873267 16.862 0.585942C16.862 0.262301 16.5996 0 16.2761 0H3.72391C3.40042 0 3.13797 0.262301 3.13797 0.585942C3.13797 0.873267 3.14316 1.15922 3.15247 1.44349H0.585938C0.262299 1.44349 0 1.70579 0 2.02943C0 4.65488 0.686188 7.13186 1.93207 9.00428C3.1636 10.8553 4.80408 11.9171 6.57623 12.0204C6.978 12.4575 7.40265 12.814 7.845 13.0859V15.6901H6.86203C5.67368 15.6901 4.70703 16.6569 4.70703 17.8451V18.8281H4.66537C4.34174 18.8281 4.07944 19.0906 4.07944 19.4141C4.07944 19.7377 4.34174 20 4.66537 20H15.3346C15.6583 20 15.9206 19.7377 15.9206 19.4141C15.9206 19.0906 15.6583 18.8281 15.3346 18.8281H15.293V17.8451C15.293 16.6569 14.3263 15.6901 13.138 15.6901H12.155V13.0859C12.5974 12.8141 13.0222 12.4575 13.4239 12.0204C15.1959 11.9171 16.8364 10.8553 18.0681 9.00428C19.314 7.13186 20 4.65488 20 2.02943C20 1.70579 19.7377 1.44349 19.4141 1.44349ZM2.90771 8.35517C1.88004 6.81081 1.27625 4.79084 1.18423 2.61538H3.21793C3.42926 5.28965 4.05701 7.76159 5.03815 9.72374C5.1944 10.0362 5.35782 10.3315 5.52734 10.6095C4.55276 10.2415 3.65082 9.47212 2.90771 8.35517ZM14.1211 17.8451V18.8283H5.87891V17.8451C5.87891 17.3031 6.31989 16.862 6.86203 16.862H13.138C13.6801 16.862 14.1211 17.3031 14.1211 17.8451ZM10.9831 15.6901H9.01688V13.5951C9.33899 13.6799 9.66721 13.724 10 13.724C10.3328 13.724 10.661 13.6799 10.9831 13.5951V15.6901ZM11.346 12.201C11.3196 12.2119 11.2943 12.225 11.27 12.2395C10.8559 12.4455 10.4303 12.5521 10 12.5521C9.56985 12.5521 9.14444 12.4455 8.73047 12.2398C8.7059 12.225 8.68042 12.2119 8.65372 12.2007C8.19427 11.9578 7.74979 11.591 7.32941 11.1089C7.30728 11.0774 7.28241 11.0482 7.25479 11.0217C6.83746 10.5262 6.44485 9.91676 6.08627 9.19959C5.00946 7.0461 4.38751 4.21451 4.31671 1.17188H15.6833C15.6123 4.21451 14.9904 7.04626 13.9137 9.19959C13.5551 9.91676 13.1625 10.5262 12.7454 11.0217C12.7176 11.0482 12.6924 11.0775 12.6704 11.1091C12.2501 11.5913 11.8054 11.9579 11.346 12.201ZM17.0923 8.35517C16.3492 9.47212 15.4472 10.2415 14.4727 10.6095C14.6422 10.3315 14.8056 10.0362 14.9619 9.72374C15.943 7.76159 16.5706 5.28965 16.7821 2.61538H18.8158C18.7238 4.79084 18.12 6.81081 17.0923 8.35517Z" fill="#3C3C3C"/>
</svg>
