<svg width="50" height="50" viewBox="0 0 50 50" fill="none" xmlns="http://www.w3.org/2000/svg">
<path fill-rule="evenodd" clip-rule="evenodd" d="M25 5.99972C25 5.99972 25 5.99972 25 5.99972C19.7533 5.99972 15.0033 8.12637 11.565 11.5647L7.37183 7.37156C11.8833 2.84745 18.1158 -0.000235558 25 -0.000235558V5.99972Z" fill="white"/>
<path fill-rule="evenodd" clip-rule="evenodd" d="M5.99998 25C5.99998 24.9999 5.99998 24.9998 5.99998 24.9998C5.99998 19.7531 8.12657 15.0032 11.5648 11.5649L7.37179 7.37183C2.84768 11.8833 -7.62939e-06 18.1158 -7.62939e-06 25H5.99998Z" fill="white"/>
<path fill-rule="evenodd" clip-rule="evenodd" d="M5.99999 25C5.99999 25.0001 5.99999 25.0002 5.99999 25.0002C5.99999 30.2469 8.12658 34.9968 11.5648 38.4351L7.37177 42.6282C2.84767 38.1167 -1.90735e-05 31.8842 -1.90735e-05 25H5.99999Z" fill="#4872F2"/>
<path fill-rule="evenodd" clip-rule="evenodd" d="M25 44.0003C25 44.0003 25 44.0003 25 44.0003C19.7533 44.0003 15.0033 41.8736 11.565 38.4353L7.37183 42.6285C11.8833 47.1526 18.1158 50.0002 25 50.0002V44.0003Z" fill="#4872F2"/>
<path fill-rule="evenodd" clip-rule="evenodd" d="M25 44.0003C25 44.0003 25 44.0003 25 44.0003C30.2467 44.0003 34.9967 41.8736 38.435 38.4353L42.6282 42.6285C38.1167 47.1526 31.8842 50.0003 25 50.0003V44.0003Z" fill="#4872F2"/>
<path fill-rule="evenodd" clip-rule="evenodd" d="M44 25C44 25.0001 44 25.0002 44 25.0002C44 30.2469 41.8734 34.9968 38.4352 38.4351L42.6282 42.6282C47.1523 38.1167 50 31.8842 50 25H44Z" fill="#4872F2"/>
<path fill-rule="evenodd" clip-rule="evenodd" d="M44 25C44 24.9999 44 24.9998 44 24.9998C44 19.7531 41.8734 15.0032 38.4352 11.5649L42.6282 7.37183C47.1523 11.8833 50 18.1158 50 25H44Z" fill="#4872F2"/>
<path fill-rule="evenodd" clip-rule="evenodd" d="M25 5.99971C25 5.99971 25 5.99971 25 5.99971C30.2467 5.99971 34.9967 8.12636 38.435 11.5647L42.6282 7.37157C38.1167 2.84746 31.8842 -0.000224113 25 -0.000224113V5.99971Z" fill="#4872F2"/>

</svg>
