<svg width="20" height="20" viewBox="0 0 20 20" fill="none" xmlns="http://www.w3.org/2000/svg">
<g clip-path="url(#clip0)">
<path fill-rule="evenodd" clip-rule="evenodd" d="M9.92249 2.52006C9.89391 2.5372 9.87057 2.56184 9.85499 2.59131L1.28374 17.1751C1.26239 17.2093 1.25086 17.2487 1.25042 17.2891C1.24998 17.3294 1.26064 17.3691 1.28124 17.4038C1.30124 17.4413 1.32749 17.4663 1.34874 17.4788C1.36749 17.4913 1.39124 17.5001 1.43124 17.5001H18.5725C18.6015 17.5011 18.6301 17.4937 18.655 17.4788C18.6839 17.46 18.7075 17.4342 18.7237 17.4038C18.7442 17.369 18.7546 17.3293 18.7539 17.2889C18.7533 17.2486 18.7415 17.2092 18.72 17.1751L10.15 2.59131C10.1344 2.56184 10.1111 2.5372 10.0825 2.52006C10.058 2.50663 10.0304 2.49974 10.0025 2.50006C9.97455 2.49974 9.947 2.50663 9.92249 2.52006ZM11.2275 1.95756C11.1038 1.74202 10.9253 1.56294 10.7103 1.4384C10.4952 1.31387 10.251 1.24829 10.0025 1.24829C9.75396 1.24829 9.50982 1.31387 9.29473 1.4384C9.07965 1.56294 8.90123 1.74202 8.77749 1.95756L0.206243 16.5413C-0.365007 17.5138 0.319993 18.7501 1.43124 18.7501H18.5725C19.6837 18.7501 20.37 17.5126 19.7975 16.5413L11.2275 1.95756Z" fill="#4872F2"/>
<path d="M8.7525 14.9999C8.7525 14.8358 8.78483 14.6732 8.84765 14.5215C8.91047 14.3699 9.00255 14.2321 9.11862 14.116C9.23469 13.9999 9.37249 13.9079 9.52415 13.8451C9.67581 13.7822 9.83835 13.7499 10.0025 13.7499C10.1667 13.7499 10.3292 13.7822 10.4809 13.8451C10.6325 13.9079 10.7703 13.9999 10.8864 14.116C11.0025 14.2321 11.0945 14.3699 11.1574 14.5215C11.2202 14.6732 11.2525 14.8358 11.2525 14.9999C11.2525 15.3314 11.1208 15.6494 10.8864 15.8838C10.652 16.1182 10.334 16.2499 10.0025 16.2499C9.67098 16.2499 9.35304 16.1182 9.11862 15.8838C8.8842 15.6494 8.7525 15.3314 8.7525 14.9999ZM8.875 7.49365C8.85836 7.33595 8.87505 7.17652 8.924 7.02569C8.97295 6.87486 9.05307 6.736 9.15915 6.61814C9.26523 6.50027 9.39491 6.40602 9.53977 6.34151C9.68462 6.27699 9.84143 6.24365 10 6.24365C10.1586 6.24365 10.3154 6.27699 10.4602 6.34151C10.6051 6.40602 10.7348 6.50027 10.8409 6.61814C10.9469 6.736 11.0271 6.87486 11.076 7.02569C11.125 7.17652 11.1416 7.33595 11.125 7.49365L10.6875 11.8774C10.6728 12.0496 10.594 12.21 10.4667 12.3269C10.3394 12.4439 10.1728 12.5087 10 12.5087C9.82716 12.5087 9.66062 12.4439 9.53331 12.3269C9.406 12.21 9.3272 12.0496 9.3125 11.8774L8.875 7.49365Z" fill="#4872F2"/>
</g>
<defs>
<clipPath id="clip0">
<rect width="20" height="20" fill="white"/>
</clipPath>
</defs>
</svg>
