<svg width="22" height="22" viewBox="0 0 22 22" fill="none" xmlns="http://www.w3.org/2000/svg">
<path d="M20.5492 13.1433L21.7765 6.39331C21.8158 6.17715 21.8071 5.95499 21.7511 5.74254C21.6951 5.5301 21.5931 5.33255 21.4523 5.16387C21.3115 4.99519 21.1354 4.8595 20.9364 4.76638C20.7374 4.67326 20.5204 4.625 20.3007 4.625H4.57531L4.11743 2.10669C4.05474 1.761 3.87263 1.44831 3.6029 1.2232C3.33317 0.99809 2.99295 0.874852 2.64162 0.875H0.949341C0.750428 0.875 0.559663 0.954018 0.419011 1.09467C0.278358 1.23532 0.199341 1.42609 0.199341 1.625C0.199341 1.82391 0.278358 2.01468 0.419011 2.15533C0.559663 2.29598 0.750428 2.375 0.949341 2.375H2.64153L5.14493 16.1433C5.16732 16.2651 5.2047 16.3837 5.25622 16.4963C4.88176 16.8127 4.60341 17.2276 4.45271 17.6941C4.30202 18.1606 4.28499 18.66 4.40358 19.1357C4.52216 19.6113 4.7716 20.0443 5.12365 20.3854C5.47569 20.7266 5.91625 20.9623 6.39541 21.0659C6.87457 21.1695 7.37316 21.1368 7.8347 20.9716C8.29623 20.8063 8.70224 20.5151 9.00673 20.1309C9.31122 19.7467 9.50201 19.2849 9.55748 18.7978C9.61294 18.3107 9.53087 17.8178 9.32056 17.375H15.8281C15.5844 17.8889 15.5142 18.468 15.6281 19.0252C15.7419 19.5824 16.0337 20.0876 16.4595 20.4647C16.8853 20.8417 17.422 21.0703 17.9889 21.116C18.5558 21.1616 19.1222 21.0219 19.6028 20.7179C20.0835 20.4138 20.4524 19.9619 20.6539 19.4301C20.8555 18.8983 20.8789 18.3154 20.7206 17.7691C20.5623 17.2229 20.2309 16.7428 19.7762 16.4012C19.3214 16.0596 18.7681 15.8749 18.1993 15.875H6.62075L6.34793 14.375H19.0734C19.4247 14.3751 19.7649 14.2519 20.0346 14.0268C20.3044 13.8017 20.4865 13.489 20.5492 13.1433ZM8.07434 18.5C8.07434 18.7225 8.00836 18.94 7.88474 19.125C7.76113 19.31 7.58543 19.4542 7.37986 19.5394C7.17429 19.6245 6.94809 19.6468 6.72986 19.6034C6.51164 19.56 6.31118 19.4528 6.15385 19.2955C5.99651 19.1382 5.88937 18.9377 5.84596 18.7195C5.80255 18.5012 5.82483 18.275 5.90998 18.0695C5.99512 17.8639 6.13932 17.6882 6.32432 17.5646C6.50933 17.441 6.72684 17.375 6.94934 17.375C7.24761 17.3753 7.53357 17.494 7.74448 17.7049C7.95539 17.9158 8.07402 18.2017 8.07434 18.5ZM19.3243 18.5C19.3243 18.7225 19.2584 18.94 19.1347 19.125C19.0111 19.31 18.8354 19.4542 18.6299 19.5394C18.4243 19.6245 18.1981 19.6468 17.9799 19.6034C17.7616 19.56 17.5612 19.4528 17.4038 19.2955C17.2465 19.1382 17.1394 18.9377 17.096 18.7195C17.0525 18.5012 17.0748 18.275 17.16 18.0695C17.2451 17.8639 17.3893 17.6882 17.5743 17.5646C17.7593 17.441 17.9768 17.375 18.1993 17.375C18.4976 17.3753 18.7836 17.494 18.9945 17.7049C19.2054 17.9158 19.324 18.2017 19.3243 18.5ZM4.84803 6.125H20.3007L19.0735 12.875H6.07522L4.84803 6.125Z" fill="#737373"/>
</svg>
