<svg width="24" height="22" viewBox="0 0 24 22" fill="none" xmlns="http://www.w3.org/2000/svg">
<path fill-rule="evenodd" clip-rule="evenodd" d="M12.0001 4.34726L11.0142 3.31546C8.70003 0.893467 4.45665 1.72926 2.92485 4.77425C2.20571 6.20645 2.04345 8.27424 3.35662 10.9132C4.62165 13.4542 7.25349 16.4978 12.0001 19.813C16.7468 16.4978 19.3772 13.4542 20.6436 10.9132C21.9568 8.27284 21.7959 6.20645 21.0754 4.77425C19.5436 1.72926 15.3002 0.892067 12.986 3.31406L12.0001 4.34726ZM12.0001 21.5C-9.08339 7.31525 5.50856 -3.75592 11.7581 2.10026C11.8406 2.17726 11.9218 2.25706 12.0001 2.33966C12.0777 2.25714 12.1584 2.17774 12.2421 2.10166C18.4903 -3.75872 33.0836 7.31385 12.0001 21.5Z" fill="#737373" stroke="#737373" stroke-width="0.3"/>
</svg>
