<svg width="22" height="18" viewBox="0 0 22 18" fill="none" xmlns="http://www.w3.org/2000/svg">
<path d="M19.3955 0H2.60453C1.16373 0 0 1.17331 0 2.61353V15.3865C0 16.8323 1.16927 18 2.60453 18H19.3955C20.8363 18 22 16.8267 22 15.3865V2.61353C22 1.16775 20.8307 0 19.3955 0ZM1.15264 2.75811C1.15819 1.94625 1.76222 1.16219 2.57683 1.16219H19.4232C20.2322 1.16219 20.8418 1.94625 20.8418 2.75811V7.90176L14.1809 11.8221C13.5491 12.2057 12.74 12.1335 12.1859 11.6497L8.88312 8.74699C7.86902 7.85728 6.3728 7.79611 5.29219 8.60241L1.15264 11.6219V2.75811ZM20.8474 15.2475C20.8418 16.0649 20.2378 16.8489 19.4232 16.8489H2.57683C1.76776 16.8489 1.15819 16.0649 1.15819 15.253V13.0732L5.99043 9.53105C6.64433 9.05839 7.53652 9.10843 8.13501 9.64782L11.4378 12.5227C12.3688 13.329 13.7043 13.4569 14.7683 12.8397L20.8474 9.23633V15.2475Z" fill="#737373"/>
</svg>
