<svg width="40" height="36" viewBox="0 0 40 36" fill="none" xmlns="http://www.w3.org/2000/svg">
<path d="M32.4985 20.9323C33.5402 19.4417 34.1513 17.628 34.1513 15.6714C34.1513 10.5934 30.0347 6.47681 24.9567 6.47681C20.7739 6.47681 17.2435 9.26983 16.1287 13.0925V23.5749H32.7849L32.4985 20.9323Z" fill="#FFD900"/>
<path d="M34.1513 15.6714C34.1513 10.5934 30.0347 6.47681 24.9567 6.47681C24.6515 6.47681 24.3503 6.49346 24.0527 6.52248C28.6989 6.98392 32.3276 10.9038 32.3276 15.6714C32.3276 17.6279 31.7165 19.4417 30.6748 20.9323L30.9613 23.5749H32.7849L32.4984 20.9323C33.5402 19.4417 34.1513 17.6279 34.1513 15.6714Z" fill="#FFBB00"/>
<path d="M39.4054 16.2662H36.7784C36.45 16.2662 36.1837 16 36.1837 15.6716C36.1837 15.3431 36.45 15.0769 36.7784 15.0769H39.4054C39.7338 15.0769 40 15.3431 40 15.6716C40 16 39.7338 16.2662 39.4054 16.2662Z" fill="#FFD900"/>
<path d="M33.3164 7.9058C33.1642 7.9058 33.012 7.84777 32.8959 7.73169C32.6637 7.49946 32.6637 7.12293 32.8959 6.89078L34.7535 5.0331C34.9858 4.80079 35.3623 4.80087 35.5945 5.03302C35.8268 5.26525 35.8268 5.64178 35.5945 5.87393L33.7369 7.73161C33.6208 7.84769 33.4686 7.9058 33.3164 7.9058Z" fill="#FFD900"/>
<path d="M24.9567 4.44203C24.6283 4.44203 24.3621 4.17586 24.3621 3.84738V1.22038C24.3621 0.891897 24.6283 0.625732 24.9567 0.625732C25.2852 0.625732 25.5514 0.891897 25.5514 1.22038V3.84738C25.5514 4.17586 25.2852 4.44203 24.9567 4.44203Z" fill="#FFD900"/>
<path d="M16.5963 7.904C16.4442 7.904 16.2919 7.84596 16.1759 7.72988L14.3183 5.87228C14.086 5.63997 14.086 5.26352 14.3183 5.03129C14.5505 4.79914 14.927 4.79914 15.1592 5.03129L17.0168 6.88889C17.249 7.1212 17.249 7.49765 17.0168 7.72988C16.9007 7.84596 16.7485 7.904 16.5963 7.904Z" fill="#FFD900"/>
<path d="M20.432 5.34238C20.1987 5.34238 19.9772 5.20418 19.8824 4.97512L19.3797 3.76157C19.2541 3.45814 19.3981 3.11031 19.7016 2.98464C20.0049 2.85897 20.3529 3.00295 20.4785 3.30646L20.9812 4.52002C21.1068 4.82345 20.9628 5.17128 20.6593 5.29695C20.5849 5.32771 20.5078 5.34238 20.432 5.34238Z" fill="#FFA400"/>
<path d="M14.0323 11.7412C13.9565 11.7412 13.8794 11.7266 13.805 11.6958L12.5915 11.1931C12.288 11.0675 12.144 10.7196 12.2696 10.4162C12.3953 10.1128 12.7432 9.96838 13.0466 10.0944L14.2601 10.597C14.5636 10.7227 14.7076 11.0705 14.582 11.374C14.4871 11.603 14.2657 11.7412 14.0323 11.7412Z" fill="#FFA400"/>
<path d="M37.0941 21.2939C37.0183 21.2939 36.9412 21.2793 36.8668 21.2485L35.6533 20.7458C35.3498 20.6202 35.2058 20.2723 35.3315 19.9689C35.4571 19.6655 35.8051 19.5212 36.1084 19.6471L37.3219 20.1497C37.6254 20.2754 37.7694 20.6232 37.6438 20.9267C37.5489 21.1557 37.3275 21.2939 37.0941 21.2939Z" fill="#FFA400"/>
<path d="M35.8811 11.7416C35.6477 11.7416 35.4263 11.6034 35.3315 11.3743C35.2058 11.0709 35.3498 10.7231 35.6533 10.5974L36.8668 10.0947C37.1703 9.96906 37.5181 10.1131 37.6438 10.4166C37.7694 10.72 37.6254 11.0678 37.3219 11.1935L36.1084 11.6962C36.034 11.727 35.9569 11.7416 35.8811 11.7416Z" fill="#FFA400"/>
<path d="M29.4814 5.34246C29.4055 5.34246 29.3284 5.32787 29.2541 5.29702C28.9506 5.17135 28.8066 4.82353 28.9322 4.5201L29.4349 3.30654C29.5606 3.00319 29.9085 2.85881 30.2119 2.98472C30.5153 3.11038 30.6593 3.45821 30.5337 3.76164L30.031 4.9752C29.9362 5.2041 29.7147 5.34246 29.4814 5.34246Z" fill="#FFA400"/>
<path d="M32.0903 20.9257H26.5793C26.3494 20.9257 26.1542 20.7608 26.1118 20.5348C25.3066 16.2398 21.5158 12.9972 16.976 13.0452C11.9221 13.0987 7.88107 17.2767 7.88107 22.3311V23.0771C7.88107 23.3398 7.6681 23.5528 7.40535 23.5528H5.98501C2.72586 23.5528 0.0243369 26.1597 0.000154558 29.4187C-0.0241864 32.7037 2.63143 35.3744 5.9108 35.3744H32.181C36.1891 35.3744 39.4349 32.1103 39.4051 28.0953C39.3756 24.1119 36.0738 20.9257 32.0903 20.9257Z" fill="#C8EFFE"/>
<path d="M32.0903 20.9258H30.2667C34.2502 20.9258 37.552 24.112 37.5815 28.0953C37.6113 32.1103 34.3655 35.3745 30.3574 35.3745H32.181C36.1892 35.3745 39.4349 32.1104 39.4051 28.0953C39.3756 24.112 36.0738 20.9258 32.0903 20.9258Z" fill="#99E2FC"/>
<path d="M24.2883 20.5348C24.3306 20.7609 24.5258 20.9258 24.7558 20.9258H26.5794C26.3495 20.9258 26.1543 20.7609 26.1119 20.5348C25.3067 16.2398 21.5159 12.9972 16.9761 13.0452C16.7036 13.0481 16.4342 13.0637 16.168 13.0901C20.2482 13.4936 23.5439 16.5644 24.2883 20.5348Z" fill="#99E2FC"/>
<path d="M11.8216 23.5528C12.1501 23.5528 12.4163 23.2867 12.4163 22.9582C12.4163 22.6297 12.1501 22.3635 11.8216 22.3635H7.88107V23.077C7.88107 23.3398 7.6681 23.5527 7.40535 23.5527H5.98501C5.98446 23.5527 5.98398 23.5528 5.98343 23.5528H11.8216Z" fill="#99E2FC"/>
</svg>
